<svg id="Layer_1" data-name="Layer 1" xmlns="http://www.w3.org/2000/svg" viewBox="0 0 500 400"><defs><style>.cls-1{fill:#06539e;}.cls-2{fill:#b5a9a6;}.cls-3{fill:#d9d0cc;}.cls-4{fill:none;stroke:#b2afad;stroke-miterlimit:10;stroke-width:4px;}.cls-5{fill:#e12d26;}</style></defs><title>logo jalin_danrek</title><path class="cls-1" d="M49.87387,339.22911h-.147l-9.35547-13.72168v20.76563h-2.8252V320.59043h2.93506l9.35547,14.01563,9.356-14.01562h2.93506v25.68262H59.22934V325.47032Z"/><path class="cls-1" d="M71.37338,340.568a6.58556,6.58556,0,0,0,1.50439,2.01758,6.33933,6.33933,0,0,0,2.05469,1.248,6.79828,6.79828,0,0,0,2.38477.42188,7.2668,7.2668,0,0,0,3.39355-.73437,10.02808,10.02808,0,0,0,2.58691-1.94434l1.76074,1.57813a11.58709,11.58709,0,0,1-3.26514,2.58594,9.6306,9.6306,0,0,1-4.54932.97266,9.46521,9.46521,0,0,1-3.66895-.71582,9.1274,9.1274,0,0,1-3.01709-2.01758,9.638,9.638,0,0,1-2.05469-3.13672,10.42344,10.42344,0,0,1-.76172-4.03613,10.957,10.957,0,0,1,.67871-3.87109,9.736,9.736,0,0,1,1.88916-3.15527,8.82265,8.82265,0,0,1,2.88037-2.10937,9.15033,9.15033,0,0,1,7.39258.01855,8.204,8.204,0,0,1,2.78857,2.14648,9.34751,9.34751,0,0,1,1.72412,3.19141,12.82148,12.82148,0,0,1,.5874,3.92578v.4043a3.46208,3.46208,0,0,1-.03662.47656H70.64A7.8002,7.8002,0,0,0,71.37338,340.568ZM82.784,335.74375a9.76508,9.76508,0,0,0-.5293-2.459,6.56319,6.56319,0,0,0-1.1665-2.05469,5.64614,5.64614,0,0,0-1.82373-1.41211,5.57215,5.57215,0,0,0-2.498-.53223,5.35213,5.35213,0,0,0-2.29785.49512,6.00145,6.00145,0,0,0-1.85986,1.3584,7.12154,7.12154,0,0,0-1.3125,2.03613,8.63292,8.63292,0,0,0-.65625,2.56836Z"/><path class="cls-1" d="M106.83334,329.2125a7.29393,7.29393,0,0,1,1.44922-1.21094,7.03577,7.03577,0,0,1,1.81592-.80664,8.083,8.083,0,0,1,2.25635-.29395,6.67558,6.67558,0,0,1,5.17334,2.03613,7.95585,7.95585,0,0,1,1.87109,5.5957v11.74023h-2.8252V335.193a6.22868,6.22868,0,0,0-1.30225-4.2373,4.55207,4.55207,0,0,0-3.61377-1.48633,5.33542,5.33542,0,0,0-2.01807.38574,4.72089,4.72089,0,0,0-1.66943,1.13672,5.513,5.513,0,0,0-1.13721,1.85352,6.92838,6.92838,0,0,0-.42187,2.49414v10.93359h-2.78857V335.11973a6.11433,6.11433,0,0,0-1.30225-4.16406,4.50917,4.50917,0,0,0-3.57715-1.48633,4.92255,4.92255,0,0,0-2.09131.44043,5.03065,5.03065,0,0,0-1.66943,1.24707,5.97015,5.97015,0,0,0-1.11914,1.88965,6.82236,6.82236,0,0,0-.40332,2.40332v10.82324H90.6351V327.3043h2.8252v3.19238a15.43688,15.43688,0,0,1,1.04541-1.35742,6.503,6.503,0,0,1,1.30273-1.15527,6.41962,6.41962,0,0,1,1.65088-.78906,6.99868,6.99868,0,0,1,2.12793-.29395,6.36939,6.36939,0,0,1,3.81543,1.083,6.99723,6.99723,0,0,1,2.2749,2.69629A11.92247,11.92247,0,0,1,106.83334,329.2125Z"/><path class="cls-1" d="M143.90707,340.95274a9.55161,9.55161,0,0,1-2.03613,3.10059,8.89536,8.89536,0,0,1-2.89844,1.94434,8.67712,8.67712,0,0,1-3.35742.67871,8.38225,8.38225,0,0,1-2.42139-.33008,8.088,8.088,0,0,1-1.981-.88086,8.50235,8.50235,0,0,1-1.59619-1.2832,11.42067,11.42067,0,0,1-1.26562-1.541v3.63184h-2.8252v-26.7832h2.8252v11.63086a14.6607,14.6607,0,0,1,1.30225-1.61426,8.38024,8.38024,0,0,1,1.59619-1.33984,8.27736,8.27736,0,0,1,1.96289-.917,7.80711,7.80711,0,0,1,2.40283-.34863,8.93531,8.93531,0,0,1,6.2373,2.58691,9.40038,9.40038,0,0,1,2.05469,3.10059,11.735,11.735,0,0,1,0,8.36426Zm-2.66016-7.1748a7.11115,7.11115,0,0,0-1.44922-2.31836,6.24233,6.24233,0,0,0-2.12793-1.47852,6.53594,6.53594,0,0,0-2.56836-.51172,6.373,6.373,0,0,0-2.5498.53027,7.18734,7.18734,0,0,0-2.20117,1.47754,6.923,6.923,0,0,0-1.541,2.30078,7.63048,7.63048,0,0,0-.56885,2.99219,7.7753,7.7753,0,0,0,.56885,3.0127,6.88209,6.88209,0,0,0,1.541,2.31836,7.20783,7.20783,0,0,0,2.20117,1.47852,6.38764,6.38764,0,0,0,2.5498.52832,6.87814,6.87814,0,0,0,2.58691-.49219,6.04826,6.04826,0,0,0,2.12793-1.42383,6.82422,6.82422,0,0,0,1.43066-2.2998,8.46426,8.46426,0,0,0,.53223-3.085A8.20938,8.20938,0,0,0,141.24691,333.77793Z"/><path class="cls-1" d="M152.34506,340.568a6.58556,6.58556,0,0,0,1.50439,2.01758,6.33933,6.33933,0,0,0,2.05469,1.248,6.79828,6.79828,0,0,0,2.38477.42188,7.2668,7.2668,0,0,0,3.39355-.73437,10.02808,10.02808,0,0,0,2.58691-1.94434l1.76074,1.57813a11.58709,11.58709,0,0,1-3.26514,2.58594,9.6306,9.6306,0,0,1-4.54932.97266,9.46521,9.46521,0,0,1-3.66895-.71582,9.1274,9.1274,0,0,1-3.01709-2.01758,9.638,9.638,0,0,1-2.05469-3.13672,10.42344,10.42344,0,0,1-.76172-4.03613,10.957,10.957,0,0,1,.67871-3.87109,9.736,9.736,0,0,1,1.88916-3.15527,8.82265,8.82265,0,0,1,2.88037-2.10937,9.15033,9.15033,0,0,1,7.39258.01855,8.204,8.204,0,0,1,2.78857,2.14648,9.34751,9.34751,0,0,1,1.72412,3.19141,12.82148,12.82148,0,0,1,.5874,3.92578v.4043a3.46208,3.46208,0,0,1-.03662.47656H151.61166A7.8002,7.8002,0,0,0,152.34506,340.568Zm11.41064-4.82422a9.76508,9.76508,0,0,0-.5293-2.459,6.56319,6.56319,0,0,0-1.1665-2.05469,5.64614,5.64614,0,0,0-1.82373-1.41211,5.57215,5.57215,0,0,0-2.498-.53223,5.35213,5.35213,0,0,0-2.29785.49512,6.00145,6.00145,0,0,0-1.85986,1.3584,7.12154,7.12154,0,0,0-1.3125,2.03613,8.63292,8.63292,0,0,0-.65625,2.56836Z"/><path class="cls-1" d="M174.432,346.27305h-2.8252V327.3043h2.8252v4.95313a10.10539,10.10539,0,0,1,1.28418-2.16406,8.61373,8.61373,0,0,1,1.76074-1.70605,7.4888,7.4888,0,0,1,2.16455-1.083,7.77556,7.77556,0,0,1,2.53174-.33008v3.0459H181.953a7.77143,7.77143,0,0,0-2.9165.5498,6.60406,6.60406,0,0,0-2.40332,1.65137,7.82215,7.82215,0,0,0-1.61426,2.7334,11.08256,11.08256,0,0,0-.58691,3.76074Z"/><path class="cls-1" d="M215.32113,340.60411a9.96766,9.96766,0,0,1-2.07275,3.17383,9.67517,9.67517,0,0,1-3.15527,2.14648,9.93633,9.93633,0,0,1-3.9624.78906,9.6691,9.6691,0,0,1-3.92578-.78906,9.91549,9.91549,0,0,1-3.11865-2.12793,9.56715,9.56715,0,0,1-2.05469-3.13672,9.99721,9.99721,0,0,1-.7334-3.81543,10.13105,10.13105,0,0,1,.7334-3.834,9.631,9.631,0,0,1,5.19189-5.32031A10.03236,10.03236,0,0,1,213.285,329.818a9.5851,9.5851,0,0,1,2.05469,3.13672,10.21384,10.21384,0,0,1-.01855,7.64941Zm-2.67822-6.66992a7.25132,7.25132,0,0,0-1.48584-2.36035,7.135,7.135,0,0,0-2.23828-1.5918,6.63773,6.63773,0,0,0-2.78809-.58594,6.91833,6.91833,0,0,0-2.8252.56738,6.31607,6.31607,0,0,0-2.18311,1.57324,7.53394,7.53394,0,0,0-1.4126,2.34277,7.931,7.931,0,0,0-.51318,2.873,7.834,7.834,0,0,0,.53174,2.8916,7.17637,7.17637,0,0,0,1.46777,2.3418,7.04281,7.04281,0,0,0,2.21973,1.57422,6.64735,6.64735,0,0,0,2.78809.585,6.904,6.904,0,0,0,2.8252-.56738,6.59881,6.59881,0,0,0,2.20117-1.55566,7.13814,7.13814,0,0,0,1.43115-2.32422,7.93249,7.93249,0,0,0,.51367-2.87207A7.83679,7.83679,0,0,0,212.64291,333.93418Z"/><path class="cls-1" d="M231.04281,327.37852v2.4209h-5.98047v16.47363h-2.8252V329.79942h-2.605v-2.458h2.605V325.69a6.758,6.758,0,0,1,1.48584-4.73242,5.47206,5.47206,0,0,1,4.23779-1.61426,11.2868,11.2868,0,0,1,1.70605.11035,7.30515,7.30515,0,0,1,1.41309.36621v2.458c-.51367-.14648-.97949-.26172-1.39453-.34766a6.71041,6.71041,0,0,0-1.35742-.12891q-3.30249,0-3.30225,4.03613v1.541Z"/><path class="cls-2" d="M270.28126,309.86443a23.4012,23.4012,0,0,1,8.22958.49266,23.96353,23.96353,0,0,1,10.93658,5.86864,27.05485,27.05485,0,0,1-.80522,8.96341,24.043,24.043,0,0,1-4.49361,9.1538,31.00092,31.00092,0,0,0-9.27919-9.73646,20.14719,20.14719,0,0,0-12.47883-3.09414,22.966,22.966,0,0,0-5.09816.88432,46.56671,46.56671,0,0,0-7.21086,2.89734,37.77328,37.77328,0,0,1,3.63952-6.16578,24.04565,24.04565,0,0,1,16.5602-9.26379"/><path class="cls-2" d="M249.37882,328.2068a27.18454,27.18454,0,0,1,18.4632-4.54056c-.26045.61164-.57433,1.19817-.85087,1.80208a31.78189,31.78189,0,0,0-2.55968,7.55174,20.57784,20.57784,0,0,0,.56981,10.75006,23.59309,23.59309,0,0,0,7.83794,10.74814c1.32486,1.08948,2.79379,1.986,4.14825,3.035a42.27547,42.27547,0,0,1-7.38581-.09774,24.06208,24.06208,0,0,1-18.61052-13.68085,23.66182,23.66182,0,0,1-2.2259-9.24769v-1.61042a25.72408,25.72408,0,0,1,.61358-4.70972"/><path class="cls-3" d="M291.63572,318.29224c.602.78528,1.07658,1.65739,1.62453,2.48a23.93444,23.93444,0,0,1-13.3792,35.87813,27.48588,27.48588,0,0,1-8.05529-5.81783,24.0759,24.0759,0,0,1-5.11041-7.80834c5.012-.19745,10.13458-1.19688,14.45583-3.83889a19.707,19.707,0,0,0,6.041-5.704,24.59164,24.59164,0,0,0,3.938-10.43107c.17233-.84379.17107-1.70818.29649-2.55711.12283-.7274.108-1.4683.18909-2.20084"/><path class="cls-1" d="M417.5031,319.18653h3.32824q0,8.32544.00126,16.6528,5.2731-4.77046,10.58157-9.50559c1.43615-.083,2.88965-.01994,4.33283-.02893-2.82979,2.606-5.64289,5.23-8.50035,7.81027,2.88706,4.457,5.79661,8.90426,8.6695,13.36957-1.34736-.01607-2.69668.009-4.0447-.01028-.20385.03537-.25146-.18073-.34665-.29392q-3.40928-5.31458-6.81855-10.62657c-1.303,1.05087-2.568,2.141-3.87489,3.18674q0,3.86943,0,7.74018-1.6651-.00194-3.32824,0-.00194-14.14551,0-28.29426"/><path class="cls-1" d="M304.85975,319.43846c3.80929.00385,7.61863-.00257,11.42855.00257a10.83921,10.83921,0,0,1,7.77812,3.45687,10.29743,10.29743,0,0,1,2.13008,5.07693,37.30038,37.30038,0,0,1,.37111,7.65851,17.94145,17.94145,0,0,1-1.39434,5.98311,9.83366,9.83366,0,0,1-4.08454,4.59589,10.90887,10.90887,0,0,1-5.35351,1.26439c-3.62472.009-7.25074,0-10.87546.00516q.00188-14.023,0-28.04343m3.56878,3.27742q-.00194,10.744,0,21.48984,2.3934-.00191,4.78492-.00128a24.14181,24.14181,0,0,0,3.62861-.13443,6.13545,6.13545,0,0,0,4.42543-2.58284,14.73413,14.73413,0,0,0,1.95964-6.64491,16.236,16.236,0,0,0-1.08369-8.12477,6.91532,6.91532,0,0,0-1.804-2.5449,7.53353,7.53353,0,0,0-4.47559-1.43164c-2.478-.02636-4.95795.02381-7.43531-.02508"/><path class="cls-1" d="M387.97355,328.15562a11.39948,11.39948,0,0,1,7.04623-2.64843c-.011,1.07533.027,2.15387-.0135,3.22855a2.65529,2.65529,0,0,1-.75764.12027,6.92235,6.92235,0,0,0-4.628,2.41884,7.899,7.899,0,0,0-1.604,5.138c-.00836,3.7913.00451,7.58324-.00644,11.37518q-1.73452.00194-3.46971-.00128c-.00836-3.08256-.0013-6.16642-.00389-9.249a25.156,25.156,0,0,1,.15631-3.94951,10.132,10.132,0,0,1,3.28066-6.43268"/><path class="cls-1" d="M404.254,325.65066a8.83489,8.83489,0,0,1,6.29506,1.35124,8.30569,8.30569,0,0,1,2.761,3.56749,16.8761,16.8761,0,0,1,.98661,7.32407c-4.84223-.00387-9.68567.01158-14.5279-.00966a8.34812,8.34812,0,0,0,1.622,5.50849,6.33178,6.33178,0,0,0,4.73993,1.66637,4.269,4.269,0,0,0,3.13338-1.34481,7.87234,7.87234,0,0,0,1.63034-4.36368c1.14092,0,2.28251.00385,3.42472-.00259a17.59653,17.59653,0,0,1-1.17244,4.06978,7.81732,7.81732,0,0,1-4.08266,3.7868,10.13077,10.13077,0,0,1-6.32269.30807,7.278,7.278,0,0,1-4.2016-3.01246,11.88511,11.88511,0,0,1-1.91721-5.83135,18.19425,18.19425,0,0,1,.33892-5.82489,10.32143,10.32143,0,0,1,2.67418-5.057,8.26,8.26,0,0,1,4.61836-2.13587m-2.37636,4.38235a8.19521,8.19521,0,0,0-2.11917,4.95218q5.47571,0,10.94879,0a7.18153,7.18153,0,0,0-1.61684-5.03257,4.73576,4.73576,0,0,0-3.93216-1.31328,5.40128,5.40128,0,0,0-3.28062,1.39368"/><path class="cls-1" d="M442.39611,325.76277a11.86164,11.86164,0,0,1,5.23127.16722,6.34834,6.34834,0,0,1,4.23186,3.39128,9.16494,9.16494,0,0,1,.49715,3.89293c-1.08176.01865-2.16223,0-3.24144.01221a7.96953,7.96953,0,0,0-.6084-3.08,4.03263,4.03263,0,0,0-3.23564-1.62006,6.22521,6.22521,0,0,0-3.40415.55758,2.69,2.69,0,0,0-.793,3.95917,6.073,6.073,0,0,0,2.68125,1.1628c1.58276.3981,3.188.7261,4.7457,1.20781a8.52464,8.52464,0,0,1,2.981,1.53968,5.09,5.09,0,0,1,1.46638,3.54368,6.60363,6.60363,0,0,1-1.57829,4.90588,7.78693,7.78693,0,0,1-4.95728,2.31915,12.28592,12.28592,0,0,1-4.60423-.21609,6.41137,6.41137,0,0,1-3.83893-2.57126c-1.12227-1.73326-1.139-3.83891-1.22838-5.805,1.07148-.0103,2.14488-.00257,3.217-.00644a12.78668,12.78668,0,0,0,.36145,2.8176,3.296,3.296,0,0,0,1.35317,2.00015,6.31929,6.31929,0,0,0,3.91414.82129,5.04414,5.04414,0,0,0,3.11536-1.18532,3.141,3.141,0,0,0,.66755-3.45043,2.8562,2.8562,0,0,0-1.80785-1.34608c-2.29087-.77242-4.747-1.056-6.98063-1.9828a5.31273,5.31273,0,0,1-2.70826-2.18474,6.40762,6.40762,0,0,1-.64122-3.59,5.2942,5.2942,0,0,1,2.10951-3.92765,7.22737,7.22737,0,0,1,3.05491-1.3326"/><path class="cls-1" d="M330.45985,328.80559a7.625,7.625,0,0,1,5.70271-2.844,12.74647,12.74647,0,0,1,5.29687.56212,5.57762,5.57762,0,0,1,3.28451,3.15844,7.30326,7.30326,0,0,1,.3293,2.51725c-.00581,3.035.00707,6.07-.00581,9.103a6.34868,6.34868,0,0,1-1.71266,4.40486,8.47618,8.47618,0,0,1-4.95155,2.20983,12.06253,12.06253,0,0,1-6.26287-.45213,5.795,5.795,0,0,1-3.42343-4.3206,6.50519,6.50519,0,0,1,.85279-4.88721,6.73731,6.73731,0,0,1,3.57008-2.54682,19.15956,19.15956,0,0,1,4.284-.76212,7.62363,7.62363,0,0,0,3.41891-.9808,2.83834,2.83834,0,0,0-.70167-4.86662,8.53924,8.53924,0,0,0-5.02228-.15564,3.06764,3.06764,0,0,0-2.08953,1.6638,10.54618,10.54618,0,0,0-.44377,3.536c-.95313.0013-1.90755-.00128-2.86068.00257.07847-1.78341-.32349-3.73856.73511-5.34191m6.18829,9.23933a9.61388,9.61388,0,0,0-2.97518.76341,3.20618,3.20618,0,0,0-1.74547,2.75778,3.389,3.389,0,0,0,.97115,2.79379,5.6645,5.6645,0,0,0,3.26264.8451,6.66759,6.66759,0,0,0,4.10064-1.35511,4.763,4.763,0,0,0,1.521-3.33852c.01672-1.25348-.00707-2.50761.011-3.75979a17.27435,17.27435,0,0,1-5.14574,1.29334"/><path class="cls-1" d="M352.65563,326.36526a9.40816,9.40816,0,0,1,6.71629.45986,7.06674,7.06674,0,0,1,3.55591,4.98238,13.16463,13.16463,0,0,1,.245,3.16168c-.00255,4.2743.00581,8.5473-.00451,12.82162-1.1377-.00387-2.2754,0-3.4144-.00257-.00836-4.09681-.0013-8.193-.00259-12.29039a13.35681,13.35681,0,0,0-.28169-3.48323,3.68869,3.68869,0,0,0-1.7101-2.35454,5.197,5.197,0,0,0-2.83108-.41289,4.29728,4.29728,0,0,0-2.40278.69458,3.57469,3.57469,0,0,0-1.24318,2.004,12.25469,12.25469,0,0,0-.28687,2.75328q0,6.54555-.00255,13.09175c-1.1242-.00387-2.24777-.0013-3.37-.0013V335.23415a11.298,11.298,0,0,1,.96534-5.71944,6.286,6.286,0,0,1,4.06723-3.14945"/><path class="cls-1" d="M370.14933,326.68324a11.36243,11.36243,0,0,1,4.922-.75568,8.09429,8.09429,0,0,1,5.093,1.60206,4.99961,4.99961,0,0,1,1.87089,3.88135c.01032,2.68123.002,5.36313.00451,8.04565a12.02157,12.02157,0,0,1-.34858,3.99391,6.104,6.104,0,0,1-3.49483,3.7019,14.60158,14.60158,0,0,1-6.35225.9377,7.83494,7.83494,0,0,1-4.05565-1.3821,6.53124,6.53124,0,0,1-.78335-9.03868,8.44694,8.44694,0,0,1,5.24674-2.45485c1.566-.30744,3.22276-.227,4.7245-.8033a2.72168,2.72168,0,0,0,1.84451-1.93262,3.05436,3.05436,0,0,0-.84958-2.88192,5.88565,5.88565,0,0,0-3.31666-.95185,6.34961,6.34961,0,0,0-3.882.957,3.06668,3.06668,0,0,0-1.04125,2.01752,14.76778,14.76778,0,0,0-.15435,2.5269q-1.44418-.00194-2.88576,0c.06752-1.61107-.23666-3.31024.463-4.83577a5.80886,5.80886,0,0,1,2.99513-2.62722m2.45487,11.51989a5.45815,5.45815,0,0,0-2.70633,1.12486,3.64148,3.64148,0,0,0-.1653,4.89363,5.01682,5.01682,0,0,0,3.09157.98337,7.72727,7.72727,0,0,0,3.86527-.93191,4.70926,4.70926,0,0,0,2.07411-3.76686c.018-1.25348-.00836-2.50761.011-3.76109-1.896.96343-4.09232,1.08885-6.17027,1.458"/><path class="cls-1" d="M462.96034,325.97a14.13849,14.13849,0,0,1,4.69942.33185,6.32734,6.32734,0,0,1,3.24015,2.10049,5.19084,5.19084,0,0,1,1.01421,2.95587V341.705a6.24229,6.24229,0,0,1-2.01366,4.29359,9.51813,9.51813,0,0,1-5.40238,2.024,11.00177,11.00177,0,0,1-5.924-.74734,5.39156,5.39156,0,0,1-2.46834-2.56869,6.46758,6.46758,0,0,1,.89523-7.16907,8.44973,8.44973,0,0,1,4.96568-2.29923c1.44255-.281,2.93915-.2611,4.36242-.64763a3.41528,3.41528,0,0,0,2.12427-1.43421,2.95632,2.95632,0,0,0-2.53848-4.34955,8.50909,8.50909,0,0,0-4.11029.19231,2.98237,2.98237,0,0,0-1.96671,1.73648,10.45008,10.45008,0,0,0-.4,3.41055q-1.45089-.00191-2.8999,0c.05594-1.77442-.24506-3.707.75438-5.31039a7.56321,7.56321,0,0,1,5.668-2.86582m5.67638,10.779a14.54433,14.54433,0,0,1-4.54252,1.19947,9.68272,9.68272,0,0,0-4.04082,1.14606,3.66855,3.66855,0,0,0-.86053,4.56694,3.20421,3.20421,0,0,0,2.42979,1.42777,7.90956,7.90956,0,0,0,4.0807-.3981,4.54369,4.54369,0,0,0,2.88835-3.65367c.08165-1.42906.00447-2.8594.045-4.28847"/><line class="cls-4" x1="60.44629" y1="288.63943" x2="445.46068" y2="288.63943"/><path class="cls-5" d="M59.29682,271.45753c-12.49327,0-21.66653-5.09437-21.66653-15.798,0-9.43252,6.8813-15.54952,15.0382-15.54952h.253c5.60838,0,9.43162-3.56759,9.43162-12.74354V111.14779a19.37232,19.37232,0,1,1,38.74464,0V227.6221c0,30.07552-15.80519,43.83543-41.295,43.83543ZM60.06111,60.684c0-11.21585,9.43162-18.098,21.66115-18.098,12.23581,0,21.66474,6.88219,21.66474,18.098v.50864c0,11.21407-9.42893,18.34922-21.66474,18.34922-12.22953,0-21.66115-7.13515-21.66115-18.34922Z"/><path class="cls-5" d="M104.91272,190.66268v-.50682c0-29.81806,22.68378-43.58425,55.05485-43.58425A97.07665,97.07665,0,0,1,193.35322,152.18v-2.29376c0-16.05816-9.94026-24.97576-29.30943-24.97576a88.9875,88.9875,0,0,0-26.76269,3.81965,16.34944,16.34944,0,0,1-5.60928,1.01815,15.77594,15.77594,0,0,1-16.05545-15.798,16.06146,16.06146,0,0,1,10.45156-15.04c12.23222-4.58574,25.48709-7.13516,43.58424-7.13516,21.15341,0,36.44459,5.60747,46.13008,15.29207,10.195,10.19321,14.78255,25.23142,14.78255,43.58514v62.18822a18.60235,18.60235,0,0,1-18.86145,18.60489c-11.21317,0-18.60578-7.90035-18.60578-16.05905v-.25386c-9.42893,10.44978-22.42813,17.33556-41.286,17.33556-25.74364,0-46.89885-14.787-46.89885-41.80538m88.94913-8.91851v-6.8804a60.0399,60.0399,0,0,0-24.7237-5.09705c-16.56588,0-26.75911,6.62564-26.75911,18.85965v.50863c0,10.45066,8.66554,16.56767,21.15341,16.56767,18.09447,0,30.32939-9.93845,30.32939-23.9585"/><path class="cls-5" d="M241.26861,61.69941a19.36827,19.36827,0,0,1,38.73654,0V212.07517a19.36827,19.36827,0,1,1-38.73654,0Z"/><path class="cls-5" d="M291.46816,60.684c0-11.21588,9.437-18.09807,21.66742-18.09807,12.234,0,21.66384,6.88219,21.66384,18.09807v.50952c0,11.21317-9.42982,18.34922-21.66384,18.34922-12.23043,0-21.66742-7.136-21.66742-18.34922Zm2.29468,50.46372a19.37231,19.37231,0,1,1,38.74462,0V212.07517a19.37231,19.37231,0,0,1-38.74462,0Z"/><path class="cls-5" d="M344.47882,111.14768a19.371,19.371,0,1,1,38.74194,0v1.52768c8.923-11.47242,20.39182-21.9168,40.01667-21.9168,29.30763,0,46.38214,19.36648,46.38214,50.7194v70.59721a19.36963,19.36963,0,1,1-38.73925,0V153.70928c0-18.35282-8.662-27.77994-23.44809-27.77994-14.779,0-24.21146,9.42712-24.21146,27.77994v58.36589a19.371,19.371,0,1,1-38.74194,0Z"/></svg>