<svg id="Layer_1" data-name="Layer 1" xmlns="http://www.w3.org/2000/svg" viewBox="0 0 500 400"><defs><style>.cls-1{fill:#e12d26;}</style></defs><title>logo jalin</title><path class="cls-1" d="M59.29682,327.31255c-12.49327,0-21.66653-5.09437-21.66653-15.798,0-9.43252,6.8813-15.54952,15.0382-15.54952h.253c5.60838,0,9.43162-3.56759,9.43162-12.74354V167.00281a19.37232,19.37232,0,1,1,38.74464,0V283.47712c0,30.07552-15.80519,43.83543-41.295,43.83543Zm.76429-210.77349c0-11.21585,9.43162-18.098,21.66115-18.098,12.23581,0,21.66474,6.88219,21.66474,18.098v.50864c0,11.21407-9.42893,18.34922-21.66474,18.34922-12.22953,0-21.66115-7.13515-21.66115-18.34922Z"/><path class="cls-1" d="M104.91272,246.5177v-.50682c0-29.81806,22.68378-43.58425,55.05485-43.58425a97.07665,97.07665,0,0,1,33.38565,5.60838v-2.29376c0-16.05816-9.94026-24.97576-29.30943-24.97576a88.9875,88.9875,0,0,0-26.76269,3.81965,16.34944,16.34944,0,0,1-5.60928,1.01815,15.77594,15.77594,0,0,1-16.05545-15.798,16.06146,16.06146,0,0,1,10.45156-15.04c12.23222-4.58574,25.48709-7.13516,43.58424-7.13516,21.15341,0,36.44459,5.60747,46.13008,15.29207,10.195,10.19321,14.78255,25.23142,14.78255,43.58514v62.18822a18.60235,18.60235,0,0,1-18.86145,18.60489c-11.21317,0-18.60578-7.90035-18.60578-16.05905v-.25386c-9.42893,10.44978-22.42813,17.33556-41.286,17.33556-25.74364,0-46.89885-14.787-46.89885-41.80538m88.94913-8.91851v-6.8804a60.0399,60.0399,0,0,0-24.7237-5.09705c-16.56588,0-26.75911,6.62564-26.75911,18.85965V244.99c0,10.45066,8.66554,16.56767,21.15341,16.56767,18.09447,0,30.32939-9.93845,30.32939-23.9585"/><path class="cls-1" d="M241.26861,117.55443a19.36827,19.36827,0,0,1,38.73654,0V267.9302a19.36827,19.36827,0,1,1-38.73654,0Z"/><path class="cls-1" d="M291.46816,116.539c0-11.21588,9.437-18.09807,21.66742-18.09807,12.234,0,21.66384,6.88219,21.66384,18.09807v.50952c0,11.21317-9.42982,18.34922-21.66384,18.34922-12.23043,0-21.66742-7.136-21.66742-18.34922Zm2.29468,50.46372a19.37231,19.37231,0,1,1,38.74462,0V267.93019a19.37231,19.37231,0,0,1-38.74462,0Z"/><path class="cls-1" d="M344.47882,167.0027a19.371,19.371,0,1,1,38.74194,0v1.52768c8.923-11.47242,20.39182-21.9168,40.01667-21.9168,29.30763,0,46.38214,19.36648,46.38214,50.7194v70.59721a19.36963,19.36963,0,1,1-38.73925,0V209.5643c0-18.35282-8.662-27.77994-23.44809-27.77994-14.779,0-24.21146,9.42712-24.21146,27.77994v58.36589a19.371,19.371,0,1,1-38.74194,0Z"/></svg>